# xmcd
#
# Track frame offsets: 
#        150
#        15713
#        40133
#        64950
#        103157
#
# Disc length: 1881 seconds
#
# Revision: 0
# Processed by: cddbd v1.5.2PL0 Copyright (c) Steve Scherf et al.
# Submitted via: ExactAudioCopy v1.0b3
#
DISCID=3e075705
DTITLE=Leona - Summer On Your Radio
DYEAR=1900
DGENRE=
TTITLE0=Summer On Your Radio (Radio)
TTITLE1=Summer On Your Radio (Extended)
TTITLE2=Summer On Your Radio (Sunburst Remix)
TTITLE3=Summer On Your Radio (Devious Wicked Summer Dub)
TTITLE4=Data
EXTD=
EXTT0=
EXTT1=
EXTT2=
EXTT3=
EXTT4=
PLAYORDER=
